<mxfile host="app.diagrams.net" agent="Mozilla/5.0 (Windows NT 10.0; Win64; x64) AppleWebKit/537.36 (KHTML, like Gecko) Chrome/140.0.0.0 Safari/537.36" version="28.2.5">
  <diagram name="Página-1" id="7Gt9n-Z7SV_CwtmudGsf">
    <mxGraphModel dx="1833" dy="1705" grid="1" gridSize="10" guides="1" tooltips="1" connect="1" arrows="1" fold="1" page="1" pageScale="1" pageWidth="827" pageHeight="1169" math="0" shadow="0">
      <root>
        <mxCell id="0" />
        <mxCell id="1" parent="0" />
        <mxCell id="YAoQZZcqndYcD_oNCYfi-75" value="Model" style="verticalAlign=top;align=left;spacingTop=8;spacingLeft=2;spacingRight=12;shape=cube;size=10;direction=south;fontStyle=4;html=1;whiteSpace=wrap;" vertex="1" parent="1">
          <mxGeometry x="-90" y="110" width="1600" height="730" as="geometry" />
        </mxCell>
        <mxCell id="YAoQZZcqndYcD_oNCYfi-77" value="Config" style="verticalAlign=top;align=left;spacingTop=8;spacingLeft=2;spacingRight=12;shape=cube;size=10;direction=south;fontStyle=4;html=1;whiteSpace=wrap;" vertex="1" parent="1">
          <mxGeometry x="870" y="496" width="590" height="320" as="geometry" />
        </mxCell>
        <mxCell id="YAoQZZcqndYcD_oNCYfi-76" value="Domain" style="verticalAlign=top;align=left;spacingTop=8;spacingLeft=2;spacingRight=12;shape=cube;size=10;direction=south;fontStyle=4;html=1;whiteSpace=wrap;" vertex="1" parent="1">
          <mxGeometry x="870" y="150" width="590" height="320" as="geometry" />
        </mxCell>
        <mxCell id="YAoQZZcqndYcD_oNCYfi-15" value="PresentationApiRepository" style="swimlane;fontStyle=1;align=center;verticalAlign=top;childLayout=stackLayout;horizontal=1;startSize=26;horizontalStack=0;resizeParent=1;resizeParentMax=0;resizeLast=0;collapsible=1;marginBottom=0;whiteSpace=wrap;html=1;" vertex="1" parent="1">
          <mxGeometry x="250" y="410" width="250" height="86" as="geometry" />
        </mxCell>
        <mxCell id="YAoQZZcqndYcD_oNCYfi-16" value="+ field: type" style="text;strokeColor=none;fillColor=none;align=left;verticalAlign=top;spacingLeft=4;spacingRight=4;overflow=hidden;rotatable=0;points=[[0,0.5],[1,0.5]];portConstraint=eastwest;whiteSpace=wrap;html=1;" vertex="1" parent="YAoQZZcqndYcD_oNCYfi-15">
          <mxGeometry y="26" width="250" height="26" as="geometry" />
        </mxCell>
        <mxCell id="YAoQZZcqndYcD_oNCYfi-17" value="" style="line;strokeWidth=1;fillColor=none;align=left;verticalAlign=middle;spacingTop=-1;spacingLeft=3;spacingRight=3;rotatable=0;labelPosition=right;points=[];portConstraint=eastwest;strokeColor=inherit;" vertex="1" parent="YAoQZZcqndYcD_oNCYfi-15">
          <mxGeometry y="52" width="250" height="8" as="geometry" />
        </mxCell>
        <mxCell id="YAoQZZcqndYcD_oNCYfi-18" value="+ &amp;nbsp;LoadAsync(): IEnumerable&amp;lt;Presentation&amp;gt;" style="text;strokeColor=none;fillColor=none;align=left;verticalAlign=top;spacingLeft=4;spacingRight=4;overflow=hidden;rotatable=0;points=[[0,0.5],[1,0.5]];portConstraint=eastwest;whiteSpace=wrap;html=1;" vertex="1" parent="YAoQZZcqndYcD_oNCYfi-15">
          <mxGeometry y="60" width="250" height="26" as="geometry" />
        </mxCell>
        <mxCell id="YAoQZZcqndYcD_oNCYfi-20" value="«interface»&lt;br&gt;&lt;b&gt;IPresentationReader&lt;/b&gt;" style="html=1;whiteSpace=wrap;" vertex="1" parent="1">
          <mxGeometry x="330" y="206" width="190" height="50" as="geometry" />
        </mxCell>
        <mxCell id="YAoQZZcqndYcD_oNCYfi-25" value="&lt;b&gt;Presentation&lt;/b&gt;" style="swimlane;fontStyle=0;childLayout=stackLayout;horizontal=1;startSize=26;fillColor=none;horizontalStack=0;resizeParent=1;resizeParentMax=0;resizeLast=0;collapsible=1;marginBottom=0;whiteSpace=wrap;html=1;" vertex="1" parent="1">
          <mxGeometry x="930" y="206" width="170" height="182" as="geometry" />
        </mxCell>
        <mxCell id="YAoQZZcqndYcD_oNCYfi-26" value="+ Id: string" style="text;strokeColor=none;fillColor=none;align=left;verticalAlign=top;spacingLeft=4;spacingRight=4;overflow=hidden;rotatable=0;points=[[0,0.5],[1,0.5]];portConstraint=eastwest;whiteSpace=wrap;html=1;" vertex="1" parent="YAoQZZcqndYcD_oNCYfi-25">
          <mxGeometry y="26" width="170" height="26" as="geometry" />
        </mxCell>
        <mxCell id="YAoQZZcqndYcD_oNCYfi-27" value="+ Title: string" style="text;strokeColor=none;fillColor=none;align=left;verticalAlign=top;spacingLeft=4;spacingRight=4;overflow=hidden;rotatable=0;points=[[0,0.5],[1,0.5]];portConstraint=eastwest;whiteSpace=wrap;html=1;" vertex="1" parent="YAoQZZcqndYcD_oNCYfi-25">
          <mxGeometry y="52" width="170" height="26" as="geometry" />
        </mxCell>
        <mxCell id="YAoQZZcqndYcD_oNCYfi-28" value="+ ThumbnailUrl: string" style="text;strokeColor=none;fillColor=none;align=left;verticalAlign=top;spacingLeft=4;spacingRight=4;overflow=hidden;rotatable=0;points=[[0,0.5],[1,0.5]];portConstraint=eastwest;whiteSpace=wrap;html=1;" vertex="1" parent="YAoQZZcqndYcD_oNCYfi-25">
          <mxGeometry y="78" width="170" height="26" as="geometry" />
        </mxCell>
        <mxCell id="YAoQZZcqndYcD_oNCYfi-29" value="+ Privacy: Privacy" style="text;strokeColor=none;fillColor=none;align=left;verticalAlign=top;spacingLeft=4;spacingRight=4;overflow=hidden;rotatable=0;points=[[0,0.5],[1,0.5]];portConstraint=eastwest;whiteSpace=wrap;html=1;" vertex="1" parent="YAoQZZcqndYcD_oNCYfi-25">
          <mxGeometry y="104" width="170" height="26" as="geometry" />
        </mxCell>
        <mxCell id="YAoQZZcqndYcD_oNCYfi-30" value="+ LastModified: DateTime" style="text;strokeColor=none;fillColor=none;align=left;verticalAlign=top;spacingLeft=4;spacingRight=4;overflow=hidden;rotatable=0;points=[[0,0.5],[1,0.5]];portConstraint=eastwest;whiteSpace=wrap;html=1;" vertex="1" parent="YAoQZZcqndYcD_oNCYfi-25">
          <mxGeometry y="130" width="170" height="26" as="geometry" />
        </mxCell>
        <mxCell id="YAoQZZcqndYcD_oNCYfi-32" value="+ Author: Author" style="text;strokeColor=none;fillColor=none;align=left;verticalAlign=top;spacingLeft=4;spacingRight=4;overflow=hidden;rotatable=0;points=[[0,0.5],[1,0.5]];portConstraint=eastwest;whiteSpace=wrap;html=1;" vertex="1" parent="YAoQZZcqndYcD_oNCYfi-25">
          <mxGeometry y="156" width="170" height="26" as="geometry" />
        </mxCell>
        <mxCell id="YAoQZZcqndYcD_oNCYfi-33" value="&lt;p style=&quot;margin:0px;margin-top:4px;text-align:center;text-decoration:underline;&quot;&gt;&lt;b&gt;Privacy:Enum&lt;/b&gt;&lt;/p&gt;&lt;hr size=&quot;1&quot; style=&quot;border-style:solid;&quot;&gt;&lt;p style=&quot;margin:0px;margin-left:8px;&quot;&gt;Public&lt;br&gt;Private&lt;br&gt;Hidden&lt;/p&gt;" style="verticalAlign=top;align=left;overflow=fill;html=1;whiteSpace=wrap;" vertex="1" parent="1">
          <mxGeometry x="1200" y="252" width="160" height="90" as="geometry" />
        </mxCell>
        <mxCell id="YAoQZZcqndYcD_oNCYfi-34" value="&lt;b&gt;Author&lt;/b&gt;" style="swimlane;fontStyle=0;childLayout=stackLayout;horizontal=1;startSize=26;fillColor=none;horizontalStack=0;resizeParent=1;resizeParentMax=0;resizeLast=0;collapsible=1;marginBottom=0;whiteSpace=wrap;html=1;" vertex="1" parent="1">
          <mxGeometry x="1200" y="362" width="140" height="78" as="geometry" />
        </mxCell>
        <mxCell id="YAoQZZcqndYcD_oNCYfi-35" value="+ Id: string" style="text;strokeColor=none;fillColor=none;align=left;verticalAlign=top;spacingLeft=4;spacingRight=4;overflow=hidden;rotatable=0;points=[[0,0.5],[1,0.5]];portConstraint=eastwest;whiteSpace=wrap;html=1;" vertex="1" parent="YAoQZZcqndYcD_oNCYfi-34">
          <mxGeometry y="26" width="140" height="26" as="geometry" />
        </mxCell>
        <mxCell id="YAoQZZcqndYcD_oNCYfi-36" value="+ Name: string" style="text;strokeColor=none;fillColor=none;align=left;verticalAlign=top;spacingLeft=4;spacingRight=4;overflow=hidden;rotatable=0;points=[[0,0.5],[1,0.5]];portConstraint=eastwest;whiteSpace=wrap;html=1;" vertex="1" parent="YAoQZZcqndYcD_oNCYfi-34">
          <mxGeometry y="52" width="140" height="26" as="geometry" />
        </mxCell>
        <mxCell id="YAoQZZcqndYcD_oNCYfi-40" value="1" style="endArrow=open;html=1;endSize=12;startArrow=diamondThin;startSize=14;startFill=1;edgeStyle=orthogonalEdgeStyle;align=left;verticalAlign=bottom;rounded=0;entryX=1;entryY=0.5;entryDx=0;entryDy=0;exitX=0;exitY=0.156;exitDx=0;exitDy=0;exitPerimeter=0;" edge="1" parent="1" source="YAoQZZcqndYcD_oNCYfi-34" target="YAoQZZcqndYcD_oNCYfi-32">
          <mxGeometry x="-1" y="3" relative="1" as="geometry">
            <mxPoint x="1090" y="456" as="sourcePoint" />
            <mxPoint x="1250" y="456" as="targetPoint" />
          </mxGeometry>
        </mxCell>
        <mxCell id="YAoQZZcqndYcD_oNCYfi-41" value="1" style="endArrow=open;html=1;endSize=12;startArrow=diamondThin;startSize=14;startFill=1;edgeStyle=orthogonalEdgeStyle;align=left;verticalAlign=bottom;rounded=0;entryX=1;entryY=0.5;entryDx=0;entryDy=0;exitX=-0.015;exitY=0.149;exitDx=0;exitDy=0;exitPerimeter=0;" edge="1" parent="1" source="YAoQZZcqndYcD_oNCYfi-33" target="YAoQZZcqndYcD_oNCYfi-29">
          <mxGeometry x="-1" y="3" relative="1" as="geometry">
            <mxPoint x="1187" y="396" as="sourcePoint" />
            <mxPoint x="1100" y="397" as="targetPoint" />
          </mxGeometry>
        </mxCell>
        <mxCell id="YAoQZZcqndYcD_oNCYfi-44" value="PresentationFal&lt;span style=&quot;background-color: transparent; color: light-dark(rgb(0, 0, 0), rgb(255, 255, 255));&quot;&gt;lbackRepository&lt;/span&gt;" style="swimlane;fontStyle=1;align=center;verticalAlign=top;childLayout=stackLayout;horizontal=1;startSize=26;horizontalStack=0;resizeParent=1;resizeParentMax=0;resizeLast=0;collapsible=1;marginBottom=0;whiteSpace=wrap;html=1;" vertex="1" parent="1">
          <mxGeometry x="560" y="520" width="282.5" height="112" as="geometry" />
        </mxCell>
        <mxCell id="YAoQZZcqndYcD_oNCYfi-45" value="+&amp;nbsp;&lt;span style=&quot;font-weight: 700; text-align: center;&quot;&gt;PresentationApiRepo&lt;/span&gt;:&amp;nbsp;&lt;b style=&quot;text-align: center;&quot;&gt;IPresentationReader&lt;/b&gt;" style="text;strokeColor=none;fillColor=none;align=left;verticalAlign=top;spacingLeft=4;spacingRight=4;overflow=hidden;rotatable=0;points=[[0,0.5],[1,0.5]];portConstraint=eastwest;whiteSpace=wrap;html=1;" vertex="1" parent="YAoQZZcqndYcD_oNCYfi-44">
          <mxGeometry y="26" width="282.5" height="26" as="geometry" />
        </mxCell>
        <mxCell id="YAoQZZcqndYcD_oNCYfi-51" value="+ &lt;span style=&quot;font-weight: 700; text-align: center;&quot;&gt;PresentationFileRepo&lt;/span&gt;:&amp;nbsp;&lt;b style=&quot;text-align: center;&quot;&gt;IPresentationReader&lt;/b&gt;" style="text;strokeColor=none;fillColor=none;align=left;verticalAlign=top;spacingLeft=4;spacingRight=4;overflow=hidden;rotatable=0;points=[[0,0.5],[1,0.5]];portConstraint=eastwest;whiteSpace=wrap;html=1;" vertex="1" parent="YAoQZZcqndYcD_oNCYfi-44">
          <mxGeometry y="52" width="282.5" height="26" as="geometry" />
        </mxCell>
        <mxCell id="YAoQZZcqndYcD_oNCYfi-46" value="" style="line;strokeWidth=1;fillColor=none;align=left;verticalAlign=middle;spacingTop=-1;spacingLeft=3;spacingRight=3;rotatable=0;labelPosition=right;points=[];portConstraint=eastwest;strokeColor=inherit;" vertex="1" parent="YAoQZZcqndYcD_oNCYfi-44">
          <mxGeometry y="78" width="282.5" height="8" as="geometry" />
        </mxCell>
        <mxCell id="YAoQZZcqndYcD_oNCYfi-47" value="+ &amp;nbsp;LoadAsync(): IEnumerable&amp;lt;Presentation&amp;gt;" style="text;strokeColor=none;fillColor=none;align=left;verticalAlign=top;spacingLeft=4;spacingRight=4;overflow=hidden;rotatable=0;points=[[0,0.5],[1,0.5]];portConstraint=eastwest;whiteSpace=wrap;html=1;" vertex="1" parent="YAoQZZcqndYcD_oNCYfi-44">
          <mxGeometry y="86" width="282.5" height="26" as="geometry" />
        </mxCell>
        <mxCell id="YAoQZZcqndYcD_oNCYfi-53" value="ViewModel" style="verticalAlign=top;align=left;spacingTop=8;spacingLeft=2;spacingRight=12;shape=cube;size=10;direction=south;fontStyle=4;html=1;whiteSpace=wrap;" vertex="1" parent="1">
          <mxGeometry x="-90" y="-360" width="1600" height="440" as="geometry" />
        </mxCell>
        <mxCell id="YAoQZZcqndYcD_oNCYfi-54" value="«interface»&lt;br&gt;&lt;b&gt;IPresentationWriter&lt;/b&gt;" style="html=1;whiteSpace=wrap;" vertex="1" parent="1">
          <mxGeometry x="25" y="206" width="190" height="50" as="geometry" />
        </mxCell>
        <mxCell id="YAoQZZcqndYcD_oNCYfi-55" value="&lt;b&gt;Config&lt;/b&gt;" style="swimlane;fontStyle=0;childLayout=stackLayout;horizontal=1;startSize=26;fillColor=none;horizontalStack=0;resizeParent=1;resizeParentMax=0;resizeLast=0;collapsible=1;marginBottom=0;whiteSpace=wrap;html=1;" vertex="1" parent="1">
          <mxGeometry x="1180" y="573" width="180" height="156" as="geometry" />
        </mxCell>
        <mxCell id="YAoQZZcqndYcD_oNCYfi-56" value="+ Endpoint: string" style="text;strokeColor=none;fillColor=none;align=left;verticalAlign=top;spacingLeft=4;spacingRight=4;overflow=hidden;rotatable=0;points=[[0,0.5],[1,0.5]];portConstraint=eastwest;whiteSpace=wrap;html=1;" vertex="1" parent="YAoQZZcqndYcD_oNCYfi-55">
          <mxGeometry y="26" width="180" height="26" as="geometry" />
        </mxCell>
        <mxCell id="YAoQZZcqndYcD_oNCYfi-57" value="+ EndpointTimeout: TimeSpan" style="text;strokeColor=none;fillColor=none;align=left;verticalAlign=top;spacingLeft=4;spacingRight=4;overflow=hidden;rotatable=0;points=[[0,0.5],[1,0.5]];portConstraint=eastwest;whiteSpace=wrap;html=1;" vertex="1" parent="YAoQZZcqndYcD_oNCYfi-55">
          <mxGeometry y="52" width="180" height="26" as="geometry" />
        </mxCell>
        <mxCell id="YAoQZZcqndYcD_oNCYfi-58" value="+ ApplicationFolder: string" style="text;strokeColor=none;fillColor=none;align=left;verticalAlign=top;spacingLeft=4;spacingRight=4;overflow=hidden;rotatable=0;points=[[0,0.5],[1,0.5]];portConstraint=eastwest;whiteSpace=wrap;html=1;" vertex="1" parent="YAoQZZcqndYcD_oNCYfi-55">
          <mxGeometry y="78" width="180" height="26" as="geometry" />
        </mxCell>
        <mxCell id="YAoQZZcqndYcD_oNCYfi-59" value="+ ThumbnailFolder: string" style="text;strokeColor=none;fillColor=none;align=left;verticalAlign=top;spacingLeft=4;spacingRight=4;overflow=hidden;rotatable=0;points=[[0,0.5],[1,0.5]];portConstraint=eastwest;whiteSpace=wrap;html=1;" vertex="1" parent="YAoQZZcqndYcD_oNCYfi-55">
          <mxGeometry y="104" width="180" height="26" as="geometry" />
        </mxCell>
        <mxCell id="YAoQZZcqndYcD_oNCYfi-60" value="+ PresentationFile: string" style="text;strokeColor=none;fillColor=none;align=left;verticalAlign=top;spacingLeft=4;spacingRight=4;overflow=hidden;rotatable=0;points=[[0,0.5],[1,0.5]];portConstraint=eastwest;whiteSpace=wrap;html=1;" vertex="1" parent="YAoQZZcqndYcD_oNCYfi-55">
          <mxGeometry y="130" width="180" height="26" as="geometry" />
        </mxCell>
        <mxCell id="YAoQZZcqndYcD_oNCYfi-62" value="ConfigManager" style="swimlane;fontStyle=1;align=center;verticalAlign=top;childLayout=stackLayout;horizontal=1;startSize=26;horizontalStack=0;resizeParent=1;resizeParentMax=0;resizeLast=0;collapsible=1;marginBottom=0;whiteSpace=wrap;html=1;" vertex="1" parent="1">
          <mxGeometry x="950" y="573" width="160" height="60" as="geometry" />
        </mxCell>
        <mxCell id="YAoQZZcqndYcD_oNCYfi-64" value="" style="line;strokeWidth=1;fillColor=none;align=left;verticalAlign=middle;spacingTop=-1;spacingLeft=3;spacingRight=3;rotatable=0;labelPosition=right;points=[];portConstraint=eastwest;strokeColor=inherit;" vertex="1" parent="YAoQZZcqndYcD_oNCYfi-62">
          <mxGeometry y="26" width="160" height="8" as="geometry" />
        </mxCell>
        <mxCell id="YAoQZZcqndYcD_oNCYfi-65" value="+ LoadFromFile(): Config" style="text;strokeColor=none;fillColor=none;align=left;verticalAlign=top;spacingLeft=4;spacingRight=4;overflow=hidden;rotatable=0;points=[[0,0.5],[1,0.5]];portConstraint=eastwest;whiteSpace=wrap;html=1;" vertex="1" parent="YAoQZZcqndYcD_oNCYfi-62">
          <mxGeometry y="34" width="160" height="26" as="geometry" />
        </mxCell>
        <mxCell id="YAoQZZcqndYcD_oNCYfi-66" value="1" style="endArrow=open;html=1;endSize=12;startArrow=diamondThin;startSize=14;startFill=1;edgeStyle=orthogonalEdgeStyle;align=left;verticalAlign=bottom;rounded=0;entryX=0.003;entryY=0.095;entryDx=0;entryDy=0;exitX=1;exitY=0.5;exitDx=0;exitDy=0;entryPerimeter=0;" edge="1" parent="1" source="YAoQZZcqndYcD_oNCYfi-65" target="YAoQZZcqndYcD_oNCYfi-55">
          <mxGeometry x="-1" y="3" relative="1" as="geometry">
            <mxPoint x="1260" y="410" as="sourcePoint" />
            <mxPoint x="1160" y="411" as="targetPoint" />
          </mxGeometry>
        </mxCell>
        <mxCell id="YAoQZZcqndYcD_oNCYfi-21" value="PresentationFileRepository" style="swimlane;fontStyle=1;align=center;verticalAlign=top;childLayout=stackLayout;horizontal=1;startSize=26;horizontalStack=0;resizeParent=1;resizeParentMax=0;resizeLast=0;collapsible=1;marginBottom=0;whiteSpace=wrap;html=1;" vertex="1" parent="1">
          <mxGeometry x="-50" y="410" width="260" height="86" as="geometry" />
        </mxCell>
        <mxCell id="YAoQZZcqndYcD_oNCYfi-22" value="+ field: type" style="text;strokeColor=none;fillColor=none;align=left;verticalAlign=top;spacingLeft=4;spacingRight=4;overflow=hidden;rotatable=0;points=[[0,0.5],[1,0.5]];portConstraint=eastwest;whiteSpace=wrap;html=1;" vertex="1" parent="YAoQZZcqndYcD_oNCYfi-21">
          <mxGeometry y="26" width="260" height="26" as="geometry" />
        </mxCell>
        <mxCell id="YAoQZZcqndYcD_oNCYfi-23" value="" style="line;strokeWidth=1;fillColor=none;align=left;verticalAlign=middle;spacingTop=-1;spacingLeft=3;spacingRight=3;rotatable=0;labelPosition=right;points=[];portConstraint=eastwest;strokeColor=inherit;" vertex="1" parent="YAoQZZcqndYcD_oNCYfi-21">
          <mxGeometry y="52" width="260" height="8" as="geometry" />
        </mxCell>
        <mxCell id="YAoQZZcqndYcD_oNCYfi-24" value="+ &amp;nbsp;LoadAsync():&amp;nbsp; IEnumerable&amp;lt;Presentation&amp;gt;" style="text;strokeColor=none;fillColor=none;align=left;verticalAlign=top;spacingLeft=4;spacingRight=4;overflow=hidden;rotatable=0;points=[[0,0.5],[1,0.5]];portConstraint=eastwest;whiteSpace=wrap;html=1;" vertex="1" parent="YAoQZZcqndYcD_oNCYfi-21">
          <mxGeometry y="60" width="260" height="26" as="geometry" />
        </mxCell>
        <mxCell id="YAoQZZcqndYcD_oNCYfi-69" value="" style="endArrow=block;dashed=1;endFill=0;endSize=12;html=1;rounded=0;exitX=0.5;exitY=0;exitDx=0;exitDy=0;entryX=0.5;entryY=1;entryDx=0;entryDy=0;edgeStyle=orthogonalEdgeStyle;" edge="1" parent="1" source="YAoQZZcqndYcD_oNCYfi-21" target="YAoQZZcqndYcD_oNCYfi-54">
          <mxGeometry width="160" relative="1" as="geometry">
            <mxPoint x="90" y="340" as="sourcePoint" />
            <mxPoint x="250" y="340" as="targetPoint" />
          </mxGeometry>
        </mxCell>
        <mxCell id="YAoQZZcqndYcD_oNCYfi-70" value="" style="endArrow=block;dashed=1;endFill=0;endSize=12;html=1;rounded=0;entryX=0.5;entryY=1;entryDx=0;entryDy=0;exitX=0.5;exitY=0;exitDx=0;exitDy=0;edgeStyle=orthogonalEdgeStyle;" edge="1" parent="1" source="YAoQZZcqndYcD_oNCYfi-15" target="YAoQZZcqndYcD_oNCYfi-20">
          <mxGeometry width="160" relative="1" as="geometry">
            <mxPoint x="220" y="360" as="sourcePoint" />
            <mxPoint x="380" y="360" as="targetPoint" />
          </mxGeometry>
        </mxCell>
        <mxCell id="YAoQZZcqndYcD_oNCYfi-71" value="" style="endArrow=block;dashed=1;endFill=0;endSize=12;html=1;rounded=0;entryX=0.694;entryY=0.952;entryDx=0;entryDy=0;entryPerimeter=0;exitX=0.5;exitY=0;exitDx=0;exitDy=0;edgeStyle=orthogonalEdgeStyle;" edge="1" parent="1" source="YAoQZZcqndYcD_oNCYfi-44" target="YAoQZZcqndYcD_oNCYfi-20">
          <mxGeometry width="160" relative="1" as="geometry">
            <mxPoint x="530" y="370" as="sourcePoint" />
            <mxPoint x="690" y="370" as="targetPoint" />
            <Array as="points">
              <mxPoint x="701" y="360" />
              <mxPoint x="462" y="360" />
            </Array>
          </mxGeometry>
        </mxCell>
        <mxCell id="YAoQZZcqndYcD_oNCYfi-72" value="" style="endArrow=block;dashed=1;endFill=0;endSize=12;html=1;rounded=0;exitX=0.75;exitY=0;exitDx=0;exitDy=0;entryX=0.25;entryY=1;entryDx=0;entryDy=0;edgeStyle=orthogonalEdgeStyle;" edge="1" parent="1" source="YAoQZZcqndYcD_oNCYfi-21" target="YAoQZZcqndYcD_oNCYfi-20">
          <mxGeometry width="160" relative="1" as="geometry">
            <mxPoint x="170" y="390" as="sourcePoint" />
            <mxPoint x="330" y="390" as="targetPoint" />
            <Array as="points">
              <mxPoint x="165" y="310" />
              <mxPoint x="378" y="310" />
            </Array>
          </mxGeometry>
        </mxCell>
        <mxCell id="YAoQZZcqndYcD_oNCYfi-73" value="1" style="endArrow=open;html=1;endSize=12;startArrow=diamondThin;startSize=14;startFill=1;edgeStyle=orthogonalEdgeStyle;align=left;verticalAlign=bottom;rounded=0;exitX=0.508;exitY=1.031;exitDx=0;exitDy=0;exitPerimeter=0;entryX=0;entryY=0.5;entryDx=0;entryDy=0;" edge="1" parent="1" source="YAoQZZcqndYcD_oNCYfi-18" target="YAoQZZcqndYcD_oNCYfi-45">
          <mxGeometry x="-1" y="3" relative="1" as="geometry">
            <mxPoint x="250" y="580" as="sourcePoint" />
            <mxPoint x="410" y="580" as="targetPoint" />
          </mxGeometry>
        </mxCell>
        <mxCell id="YAoQZZcqndYcD_oNCYfi-74" value="1" style="endArrow=open;html=1;endSize=12;startArrow=diamondThin;startSize=14;startFill=1;edgeStyle=orthogonalEdgeStyle;align=left;verticalAlign=bottom;rounded=0;exitX=0.473;exitY=1;exitDx=0;exitDy=0;exitPerimeter=0;entryX=0;entryY=0.5;entryDx=0;entryDy=0;" edge="1" parent="1" source="YAoQZZcqndYcD_oNCYfi-24" target="YAoQZZcqndYcD_oNCYfi-51">
          <mxGeometry x="-1" y="3" relative="1" as="geometry">
            <mxPoint x="120" y="620" as="sourcePoint" />
            <mxPoint x="280" y="620" as="targetPoint" />
          </mxGeometry>
        </mxCell>
        <mxCell id="YAoQZZcqndYcD_oNCYfi-78" value="Views" style="verticalAlign=top;align=left;spacingTop=8;spacingLeft=2;spacingRight=12;shape=cube;size=10;direction=south;fontStyle=4;html=1;whiteSpace=wrap;" vertex="1" parent="1">
          <mxGeometry x="-90" y="-840" width="1600" height="440" as="geometry" />
        </mxCell>
        <mxCell id="YAoQZZcqndYcD_oNCYfi-80" value="MainView" style="swimlane;fontStyle=1;align=center;verticalAlign=top;childLayout=stackLayout;horizontal=1;startSize=26;horizontalStack=0;resizeParent=1;resizeParentMax=0;resizeLast=0;collapsible=1;marginBottom=0;whiteSpace=wrap;html=1;" vertex="1" parent="1">
          <mxGeometry x="90" y="-690" width="160" height="34" as="geometry" />
        </mxCell>
        <mxCell id="YAoQZZcqndYcD_oNCYfi-82" value="" style="line;strokeWidth=1;fillColor=none;align=left;verticalAlign=middle;spacingTop=-1;spacingLeft=3;spacingRight=3;rotatable=0;labelPosition=right;points=[];portConstraint=eastwest;strokeColor=inherit;" vertex="1" parent="YAoQZZcqndYcD_oNCYfi-80">
          <mxGeometry y="26" width="160" height="8" as="geometry" />
        </mxCell>
        <mxCell id="YAoQZZcqndYcD_oNCYfi-84" value="PresentationListView" style="swimlane;fontStyle=1;align=center;verticalAlign=top;childLayout=stackLayout;horizontal=1;startSize=26;horizontalStack=0;resizeParent=1;resizeParentMax=0;resizeLast=0;collapsible=1;marginBottom=0;whiteSpace=wrap;html=1;" vertex="1" parent="1">
          <mxGeometry x="413" y="-690" width="160" height="34" as="geometry" />
        </mxCell>
        <mxCell id="YAoQZZcqndYcD_oNCYfi-86" value="" style="line;strokeWidth=1;fillColor=none;align=left;verticalAlign=middle;spacingTop=-1;spacingLeft=3;spacingRight=3;rotatable=0;labelPosition=right;points=[];portConstraint=eastwest;strokeColor=inherit;" vertex="1" parent="YAoQZZcqndYcD_oNCYfi-84">
          <mxGeometry y="26" width="160" height="8" as="geometry" />
        </mxCell>
        <mxCell id="YAoQZZcqndYcD_oNCYfi-88" value="PresentationListItemView" style="swimlane;fontStyle=1;align=center;verticalAlign=top;childLayout=stackLayout;horizontal=1;startSize=26;horizontalStack=0;resizeParent=1;resizeParentMax=0;resizeLast=0;collapsible=1;marginBottom=0;whiteSpace=wrap;html=1;" vertex="1" parent="1">
          <mxGeometry x="720" y="-690" width="160" height="34" as="geometry" />
        </mxCell>
        <mxCell id="YAoQZZcqndYcD_oNCYfi-90" value="" style="line;strokeWidth=1;fillColor=none;align=left;verticalAlign=middle;spacingTop=-1;spacingLeft=3;spacingRight=3;rotatable=0;labelPosition=right;points=[];portConstraint=eastwest;strokeColor=inherit;" vertex="1" parent="YAoQZZcqndYcD_oNCYfi-88">
          <mxGeometry y="26" width="160" height="8" as="geometry" />
        </mxCell>
        <mxCell id="YAoQZZcqndYcD_oNCYfi-91" value="1" style="endArrow=open;html=1;endSize=12;startArrow=diamondThin;startSize=14;startFill=1;edgeStyle=orthogonalEdgeStyle;align=left;verticalAlign=bottom;rounded=0;exitX=1;exitY=0.25;exitDx=0;exitDy=0;entryX=0;entryY=0.25;entryDx=0;entryDy=0;" edge="1" parent="1" source="YAoQZZcqndYcD_oNCYfi-80" target="YAoQZZcqndYcD_oNCYfi-84">
          <mxGeometry x="-1" y="3" relative="1" as="geometry">
            <mxPoint x="280" y="-540" as="sourcePoint" />
            <mxPoint x="440" y="-540" as="targetPoint" />
          </mxGeometry>
        </mxCell>
        <mxCell id="YAoQZZcqndYcD_oNCYfi-92" value="1" style="endArrow=open;html=1;endSize=12;startArrow=diamondThin;startSize=14;startFill=1;edgeStyle=orthogonalEdgeStyle;align=left;verticalAlign=bottom;rounded=0;exitX=1;exitY=0.25;exitDx=0;exitDy=0;entryX=0;entryY=0.25;entryDx=0;entryDy=0;" edge="1" parent="1" source="YAoQZZcqndYcD_oNCYfi-84" target="YAoQZZcqndYcD_oNCYfi-88">
          <mxGeometry x="-1" y="3" relative="1" as="geometry">
            <mxPoint x="610" y="-590" as="sourcePoint" />
            <mxPoint x="770" y="-590" as="targetPoint" />
          </mxGeometry>
        </mxCell>
        <mxCell id="YAoQZZcqndYcD_oNCYfi-93" value="StatusBar" style="swimlane;fontStyle=1;align=center;verticalAlign=top;childLayout=stackLayout;horizontal=1;startSize=26;horizontalStack=0;resizeParent=1;resizeParentMax=0;resizeLast=0;collapsible=1;marginBottom=0;whiteSpace=wrap;html=1;" vertex="1" parent="1">
          <mxGeometry x="414" y="-618" width="160" height="34" as="geometry" />
        </mxCell>
        <mxCell id="YAoQZZcqndYcD_oNCYfi-94" value="" style="line;strokeWidth=1;fillColor=none;align=left;verticalAlign=middle;spacingTop=-1;spacingLeft=3;spacingRight=3;rotatable=0;labelPosition=right;points=[];portConstraint=eastwest;strokeColor=inherit;" vertex="1" parent="YAoQZZcqndYcD_oNCYfi-93">
          <mxGeometry y="26" width="160" height="8" as="geometry" />
        </mxCell>
        <mxCell id="YAoQZZcqndYcD_oNCYfi-95" value="1" style="endArrow=open;html=1;endSize=12;startArrow=diamondThin;startSize=14;startFill=1;edgeStyle=orthogonalEdgeStyle;align=left;verticalAlign=bottom;rounded=0;exitX=1;exitY=0.25;exitDx=0;exitDy=0;entryX=0;entryY=0.5;entryDx=0;entryDy=0;" edge="1" parent="1" source="YAoQZZcqndYcD_oNCYfi-80" target="YAoQZZcqndYcD_oNCYfi-93">
          <mxGeometry x="-1" y="3" relative="1" as="geometry">
            <mxPoint x="240" y="-580" as="sourcePoint" />
            <mxPoint x="400" y="-580" as="targetPoint" />
          </mxGeometry>
        </mxCell>
      </root>
    </mxGraphModel>
  </diagram>
</mxfile>
